<svg xmlns="http://www.w3.org/2000/svg" viewBox="0 0 312 57"><title>Facial</title><g id="Layer_2" data-name="Layer 2"><g id="Layer_1-2" data-name="Layer 1"><rect width="312" height="57" style="fill:none"/><path d="M179.06,56h-.28c2.74-4.14,5-11.26,5.85-19.81,0,0,2.51,1.86,5.05-3.63,5.09-11,6.31-14.8,6-19a4.24,4.24,0,0,0-4.15-4.14A54.17,54.17,0,0,0,193,0H118.44a67.52,67.52,0,0,0,1.37,9.58s-5.63.19-3.94,7.89,4.69,12.2,6.57,16.14,3.38,4.13,4.5,2.63c0,0,.76,13.12,5.81,19.81,0,.11.05.46.1,1H179Z" style="fill:#282828"/></g></g></svg>