<svg xmlns="http://www.w3.org/2000/svg" viewBox="0 0 312 221"><title>Lower Extremity Lower</title><g id="Layer_2" data-name="Layer 2"><g id="Layer_1-2" data-name="Layer 1"><rect width="312" height="221" style="fill:none"/><path d="M168.44,1.49c2.07,5.44-.52,22.79-2.33,49s3.28,43.19,5.52,55.79,2.51,34.89,1.21,41-2.2,8.29-1.29,11.4c.63,2.17,1.13,3,.85,6.18a14.85,14.85,0,0,0-.44-2.57c0-.06-.21-.23-.18-.09a19.71,19.71,0,0,1-.14,7.42s0,.09.06.15c0,.27-.1.54-.15.83-1.56,8.42-1,13.47.77,16.06.9,1.28,1.87,2.19,2.64,3.38,0,.18,0,.36,0,.52s.22.36.26.25,0-.2.05-.3a10.16,10.16,0,0,1,1.21,4.7c.26,4.92,1,7.12,3.5,10s3.76,4.67,4,7.39,2.46,6.08,7.25,6.47,6.48-3.36,5.31-5.7-3-5.56-.77-6.21a1.36,1.36,0,0,1,1,.05,8,8,0,0,1,.73,1.12c.07.13.39.3.28,0s-.22-.41-.33-.61c1,1.17,1.72,3.68,3.48,6.13,2.59,3.63,6,2.08,6.87-.52,4,1.3,7.77-.64,6.86-3.63,3.37,1.7,4.66-2.45,3.62-5.31,3.24-1.29,2.08-4.79-1.29-7.38-1.85-1.43-2.2-1.43-5.31-6.6-4.79-6.86-13.48-18.91-13.48-24.93,2.28-6.48,1.73-7.85,1.18-10.5s-1.86-4.82.9-22.43c3.46-21.76,9.33-31.77,14.85-66,4-24.67.78-48.27-1.7-66.51H168A14,14,0,0,0,168.44,1.49Z" style="fill:#282828"/><path d="M96.85,66.51c5.52,34.21,11.39,44.22,14.85,66,2.77,17.61,1.44,19.79.9,22.43s-1.1,4,1.19,10.5c0,6-8.7,18.07-13.49,24.93-3.11,5.17-3.46,5.17-5.31,6.6-3.37,2.59-4.53,6.09-1.3,7.38-1,2.86.26,7,3.63,5.31-.91,3,2.85,4.93,6.86,3.63.91,2.6,4.28,4.15,6.87.52s3-7.38,5.18-6.73.4,3.89-.77,6.21.52,6.09,5.31,5.7,7-3.75,7.25-6.47,1.55-4.54,4-7.39,3.23-5.05,3.49-10,2.34-6,4.15-8.55,2.33-7.64.77-16.06-.9-8.81,0-11.92,0-5.31-1.29-11.4-1-28.36,1.21-41,7.34-29.62,5.53-55.79-4.41-43.52-2.34-49A12.07,12.07,0,0,0,144,0H98.55C96.07,18.24,92.86,41.84,96.85,66.51Z" style="fill:#282828"/></g></g></svg>