<svg xmlns="http://www.w3.org/2000/svg" viewBox="0 0 312 134"><title>Lower Extremity Upper</title><g id="Layer_2" data-name="Layer 2"><g id="Layer_1-2" data-name="Layer 1"><rect width="312" height="134" style="fill:none"/><path d="M158.33,0H153c-3.41,17.28-4.62,65.41-6.09,94.82C146,112.7,145.69,127.52,144,134H168c-1.69-6.48-2.19-21.29-2.9-39.18C165,91.27,162.5,21.73,158.33,0Z" style="fill:none"/><path d="M277.33,13.82c2.07-.52,2.93-2.42,1.73-9-.23-1.21-.57-2.9-1-4.84h-7.21C272.75,7.91,275.66,14.24,277.33,13.82Z" style="fill:#282828"/><path d="M266.79,10.54c2.18-.48,1.9-5.46,1.36-10.54h-6.36C263.36,7.49,265,11,266.79,10.54Z" style="fill:#282828"/><path d="M291.66,4.49c1.56,6,5.88,10.71,6.57,4.49a45.47,45.47,0,0,0-.63-9h-7C291.05,1.88,291.4,3.46,291.66,4.49Z" style="fill:#282828"/><path d="M281.47,2.76c1.91,10.54,4,14.69,6.74,13.82s2.42-3.46.52-12.95c-.22-1.1-.48-2.33-.76-3.63h-7C281.13.94,281.31,1.87,281.47,2.76Z" style="fill:#282828"/><path d="M23.27,3.63c-1.9,9.49-2.24,12.09.51,13s4.85-3.28,6.75-13.82c.16-.89.34-1.82.53-2.76H24C23.75,1.3,23.49,2.53,23.27,3.63Z" style="fill:#282828"/><path d="M33,4.84c-1.21,6.56-.35,8.46,1.72,9,1.68.42,4.59-5.91,6.46-13.82h-7.2C33.52,1.94,33.17,3.63,33,4.84Z" style="fill:#282828"/><path d="M13.77,9c.69,6.22,5,1.56,6.57-4.49.26-1,.61-2.61,1-4.49h-7A46.27,46.27,0,0,0,13.77,9Z" style="fill:#282828"/><path d="M45.21,10.54c1.84.41,3.43-3,5-10.54H43.85C43.31,5.08,43,10.06,45.21,10.54Z" style="fill:#282828"/><path d="M165.07,94.82c.71,17.89,1.21,32.7,2.9,39.18h45.48c-1-7-1.81-13.27-2.1-18.46,0-22.1,4.84-30.4,13.13-69.07A440.21,440.21,0,0,0,231.84,0H158.33C162.5,21.73,165,91.27,165.07,94.82Z" style="fill:#282828"/><path d="M153,0H80.16a440.21,440.21,0,0,0,7.36,46.47c8.29,38.67,13.13,47,13.13,69.07-.29,5.19-1.14,11.43-2.1,18.46H144c1.67-6.48,2-21.3,2.91-39.18C148.4,65.41,149.61,17.28,153,0Z" style="fill:#282828"/></g></g></svg>