<svg xmlns="http://www.w3.org/2000/svg" viewBox="0 0 312 61"><title>Lower Abdomen</title><g id="Layer_2" data-name="Layer 2"><g id="Layer_1-2" data-name="Layer 1"><rect width="312" height="61" style="fill:none"/><path d="M222.58,52.11c.54,3.07,1.09,6,1.66,8.89h20.34c-5.41-16.31-8.65-34.62-12.25-61H215.27c.53,4,1.33,6.65,2.39,13.77C219.47,26,220.51,32.17,222.58,52.11Z" style="fill:none"/><path d="M87.76,61c.56-2.87,1.12-5.82,1.66-8.89C91.49,32.17,92.53,26,94.34,13.77,95.4,6.65,96.2,4,96.73,0H79.67c-3.6,26.37-6.83,44.7-12.24,61Z" style="fill:none"/><path d="M244.58,61h32.75c-.34-4.82-.68-10.1-1-15.88-1.46-23.68-2.57-34.64-5.18-45.12H232.33C235.93,26.38,239.17,44.69,244.58,61Z" style="fill:#282828"/><path d="M79.67,0H40.89c-2.6,10.48-3.72,21.44-5.18,45.12-.36,5.78-.7,11.06-1,15.88H67.43C72.84,44.7,76.07,26.37,79.67,0Z" style="fill:#282828"/><path d="M89.42,52.11c-.54,3.07-1.1,6-1.66,8.89H224.24c-.57-2.87-1.12-5.82-1.66-8.89-2.07-19.94-3.11-26.16-4.92-38.34C216.6,6.65,215.8,4,215.27,0H96.73c-.53,4-1.33,6.65-2.39,13.77C92.53,26,91.49,32.17,89.42,52.11Z" style="fill:#282828"/></g></g></svg>