<svg xmlns="http://www.w3.org/2000/svg" viewBox="0 0 312 95"><title>Pelvis</title><g id="Layer_2" data-name="Layer 2"><g id="Layer_1-2" data-name="Layer 1"><rect width="312" height="95" style="fill:none"/><path d="M258.31,72.16a2.18,2.18,0,0,1-.38-.47,5.15,5.15,0,0,1-.36-.7,5.58,5.58,0,0,1-.16-.69,1.89,1.89,0,0,1,0-.72A5,5,0,0,1,258,70c-1.23-8.87-2.88-20.7-.21-28.09a4.6,4.6,0,0,1-.38.42,4.53,4.53,0,0,1,.79-3l.08-.12c-.48-5.72-6.77-20.58-11.18-32.06Q245.76,3.6,244.58,0H224.24c3.57,18.19,7.38,32.73,8.87,48.54,1,10.57.73,27-1.27,46.46h30c-1.08-5.19-2.16-12.3-3.29-21.42C258.44,73.12,258.38,72.64,258.31,72.16Z" style="fill:none"/><path d="M78.89,48.54C80.38,32.73,84.19,18.19,87.76,0H67.43c-.8,2.4-1.64,4.76-2.54,7.09-4.55,11.84-11.1,27.29-11.21,32.58a4.47,4.47,0,0,1,.53,1.64,6.13,6.13,0,0,1,0,.69c2.59,7.32,1,18.91-.21,27.69l.18-.11a2,2,0,0,1,0,.72,5.19,5.19,0,0,1-.16.69,5.59,5.59,0,0,1-.3.6c-.1.69-.19,1.35-.27,2C52.37,82.7,51.3,89.81,50.21,95H80.16C78.16,75.55,77.89,59.11,78.89,48.54Z" style="fill:none"/><path d="M53.77,71.59a5.59,5.59,0,0,0,.3-.6,5.19,5.19,0,0,0,.16-.69,2,2,0,0,0,0-.72l-.18.11c1.23-8.78,2.8-20.37.21-27.69a6.13,6.13,0,0,0,0-.69,4.47,4.47,0,0,0-.53-1.64c.11-5.29,6.66-20.74,11.21-32.58.9-2.33,1.74-4.69,2.54-7.09H34.67c-1.38,19.21-2.81,31-5.53,36.7h0c-.28.32-.64.58-.91.89s-.51.61-.74.86a7,7,0,0,0-.63,1,6,6,0,0,0,.78-.3c-.13.15-.25.29-.38.42C22.41,44.4,16,47,11.53,56.14S-.55,70.12,1.34,73.06c1.55,2.42,8.11.18,11.39-4.66s7.43-7.08,6.57-1.55c-.62,4-3.55,18.15-4.9,28.15h7c1.94-9.08,5.18-25.47,6.75-25S26.2,85,24,95h7c2.05-10.19,5.62-22.61,6.72-22.45S35.73,86.39,33.93,95h7.2c.45-1.89.84-3.88,1.14-5.88,1.56-10.36,1.9-14.85,2.94-14.5s-.17,7.94-.69,14.16c-.16,1.86-.44,4-.67,6.22h6.36c1.09-5.19,2.16-12.3,3.29-21.42C53.58,72.94,53.67,72.28,53.77,71.59Z" style="fill:#282828"/><path d="M247.11,7.09c4.41,11.48,10.7,26.34,11.18,32.06l-.08.12a4.53,4.53,0,0,0-.79,3,4.6,4.6,0,0,0,.38-.42c-2.67,7.39-1,19.22.21,28.09a5,5,0,0,0-.59-.41,1.89,1.89,0,0,0,0,.72,5.58,5.58,0,0,0,.16.69,5.15,5.15,0,0,0,.36.7,2.18,2.18,0,0,0,.38.47c.07.48.13,1,.19,1.42,1.13,9.12,2.21,16.23,3.29,21.42h6.36c-.23-2.17-.51-4.36-.66-6.22-.52-6.22-1.74-13.82-.7-14.16s1.38,4.14,2.94,14.5c.3,2,.69,4,1.14,5.88h7.21c-1.81-8.61-4.85-22.31-3.86-22.45s4.67,12.26,6.72,22.45h7c-2.17-10-5.75-24.58-4.08-25s4.81,16,6.76,25h7c-1.35-10-4.28-24.19-4.9-28.15-.86-5.53,3.28-3.28,6.56,1.55s9.85,7.08,11.4,4.66c1.89-2.94-5.7-7.77-10.19-16.92S289.59,44.4,284.76,39.56a1.37,1.37,0,0,1-.16-.18l.18.06a7,7,0,0,0-.63-1c-.22-.25-.45-.57-.74-.86l-.18-.18c-3-5.47-4.46-17.37-5.9-37.42H244.58Q245.77,3.6,247.11,7.09Z" style="fill:#282828"/><path d="M233.11,48.54c-1.49-15.81-5.3-30.35-8.87-48.54H87.76c-3.57,18.19-7.38,32.73-8.87,48.54-1,10.57-.73,27,1.27,46.46H153c.8-4.07,1.73-6.43,2.81-6.43.89,0,1.73,2.39,2.5,6.43h73.51C233.84,75.55,234.11,59.11,233.11,48.54Z" style="fill:#282828"/></g></g></svg>