<svg xmlns="http://www.w3.org/2000/svg" viewBox="0 0 312 63"><title>Upper Abdomen</title><g id="Layer_2" data-name="Layer 2"><g id="Layer_1-2" data-name="Layer 1"><rect width="312" height="63" style="fill:none"/><path d="M97.45,50.61c.31-17.62-9.33-40.42-9.33-40.42s-3.62,15.55-6.73,39.9c-.12.91-.24,1.8-.35,2.7-.1,1.3-.22,2.14-.22,2.14s0-.08,0-.22Q80.22,59,79.67,63H96.73A109.13,109.13,0,0,0,97.45,50.61Z" style="fill:none"/><path d="M231.05,53.42c-.13.93-.23,1.51-.23,1.51s-.17-1.2-.28-3c0-1-.1-2.12-.12-3.35-3.06-23.48-6.55-38.4-6.55-38.4s-9.63,22.8-9.32,40.42A109.13,109.13,0,0,0,215.27,63h17.06C231.91,59.92,231.49,56.73,231.05,53.42Z" style="fill:none"/><path d="M51.08,12.78c0,13,.21,18.21-6,36.27-1.77,5.18-3.13,9.52-4.23,14H79.67q.56-4,1.11-8.29c0,.14,0,.22,0,.22s.12-.84.22-2.14c.11-.9.23-1.79.35-2.7,3.11-24.35,6.73-39.9,6.73-39.9S97.76,33,97.45,50.61A109.13,109.13,0,0,1,96.73,63H215.27a109.13,109.13,0,0,1-.72-12.39c-.31-17.62,9.32-40.42,9.32-40.42s3.49,14.92,6.55,38.4c0,1.23.07,2.38.12,3.35.11,1.79.28,3,.28,3s.1-.58.23-1.51c.44,3.31.86,6.5,1.28,9.58h38.78c-1.1-4.43-2.46-8.77-4.23-14-6.17-18.06-6-23.31-6-36.27.39-4.56.52-8.81.51-12.78H50.57C50.56,4,50.7,8.22,51.08,12.78Z" style="fill:#282828"/></g></g></svg>